<svg width="60" height="60" viewBox="0 0 60 60" fill="none" xmlns="http://www.w3.org/2000/svg">
<path d="M23.5382 6.05497C24.1202 6.29497 24.4142 6.81097 24.6362 7.33297C25.0442 8.30497 25.7222 8.82097 26.7722 8.88097C27.0182 8.89297 27.2582 8.98897 27.4982 9.04897C28.5062 9.30097 28.8122 10.267 28.1402 11.065C27.7802 11.491 27.4202 11.929 27.0242 12.325C26.7662 12.589 26.7122 12.853 26.7602 13.207C26.8442 13.759 26.8862 14.323 26.9102 14.881C26.9582 15.901 26.1542 16.459 25.2002 16.075C24.6362 15.847 24.0902 15.583 23.5202 15.367C23.3402 15.301 23.0942 15.301 22.9202 15.367C22.3382 15.583 21.7742 15.859 21.1982 16.087C20.2742 16.453 19.4702 15.883 19.5182 14.887C19.5482 14.299 19.6562 13.711 19.6682 13.117C19.6682 12.871 19.5782 12.577 19.4282 12.373C19.0742 11.899 18.6542 11.479 18.2702 11.023C17.6162 10.249 17.9462 9.27697 18.9242 9.03697C19.1522 8.98297 19.3802 8.89297 19.6082 8.88697C20.7242 8.83897 21.4142 8.25697 21.8402 7.24897C22.0502 6.75097 22.3442 6.28297 22.8782 6.04297H23.5322L23.5382 6.05497ZM20.9522 14.671C21.5222 14.431 22.0442 14.233 22.5482 13.993C23.0042 13.777 23.4362 13.771 23.8922 13.987C24.4022 14.227 24.9302 14.431 25.5002 14.671C25.4462 14.101 25.4162 13.603 25.3442 13.111C25.2542 12.511 25.3922 12.013 25.8242 11.575C26.1902 11.209 26.5082 10.801 26.9042 10.357C26.2862 10.219 25.7702 10.087 25.2542 9.99097C24.7262 9.89497 24.3482 9.63097 24.0902 9.15097C23.8322 8.67097 23.5322 8.20897 23.2202 7.69297C22.8962 8.23897 22.6022 8.69497 22.3442 9.17497C22.0922 9.63697 21.7202 9.88897 21.2162 9.99097C20.6882 10.093 20.1602 10.225 19.5542 10.363C19.9442 10.813 20.2742 11.227 20.6402 11.599C21.0302 12.001 21.1802 12.451 21.1142 13.003C21.0482 13.543 21.0122 14.083 20.9582 14.683L20.9522 14.671Z" fill="#20CFCA"/>
<path d="M24.0186 44.7369C24.0186 43.3269 24.0547 41.9589 24.0067 40.5909C23.9707 39.5949 24.5587 38.7249 25.8067 38.7849C27.0667 38.8449 28.3327 38.7969 29.5927 38.7969C31.0927 38.7969 31.4767 39.1389 31.6267 40.5909C33.5887 40.9569 35.1306 40.2009 35.6466 38.4249C36.5226 35.3889 37.4767 32.3769 38.2867 29.3229C38.7067 27.7389 40.4707 26.9349 41.8987 28.3809C42.6667 29.1549 43.0387 30.0729 43.0327 31.1529C43.0267 32.6829 43.0327 34.2069 43.0327 35.7369C43.0327 36.7029 43.3627 37.0329 44.3167 37.0329C46.5487 37.0329 48.7747 37.0209 51.0067 37.0449C52.8787 37.0629 54.1507 38.8029 53.5507 40.5249C53.4127 40.9149 53.1547 41.2569 52.9267 41.6769C53.3587 42.1749 53.6947 42.7929 53.6887 43.5489C53.6887 44.3049 53.4066 44.9409 52.8906 45.4749C53.9766 47.1549 53.9766 47.8689 52.8906 49.4109C53.3826 49.9689 53.7007 50.6049 53.6827 51.3789C53.6527 52.7649 52.5606 53.9589 51.1746 53.9589C48.0426 53.9589 44.9047 53.9409 41.7727 53.8689C40.5367 53.8389 39.3427 53.4729 38.2147 52.9629C36.1087 52.0149 33.8887 52.0269 31.6627 52.1109C31.2847 53.3289 30.9247 53.5869 29.6347 53.5869C28.3267 53.5869 27.0127 53.5869 25.7047 53.5869C24.5947 53.5869 24.0127 52.9869 24.0127 51.8709C24.0127 49.9989 24.0127 48.1329 24.0127 46.1889C23.8027 46.1889 23.6227 46.1889 23.4427 46.1889C19.6987 46.1889 15.9607 46.1889 12.2167 46.1889C10.4647 46.1889 9.12669 45.1869 8.70069 43.5969C8.50869 42.8769 8.59864 42.1749 8.80264 41.4789C10.2846 36.4749 13.5367 33.2949 18.5947 31.9749C18.6667 31.9569 18.7387 31.9269 18.8887 31.8729C18.7207 31.7469 18.5887 31.6509 18.4627 31.5549C15.6187 29.4369 14.6047 25.6449 16.0627 22.4889C16.1767 22.2429 16.4587 21.9729 16.7107 21.9129C17.2687 21.7749 17.6166 22.3809 17.3586 22.9929C16.9146 24.0309 16.7287 25.0989 16.8607 26.2329C17.1907 29.1189 19.6267 31.4529 22.5127 31.6089C25.5067 31.7709 28.1827 29.7909 28.8427 26.9289C29.4247 24.4089 28.3987 21.8469 26.2207 20.4129C24.1267 19.0329 21.3607 19.1169 19.2847 20.6289C19.1227 20.7489 18.9487 20.8809 18.7627 20.9229C18.4207 21.0009 18.1507 20.8569 17.9947 20.5329C17.8267 20.1789 17.9467 19.8909 18.2287 19.6629C19.0807 18.9789 20.0406 18.4989 21.0966 18.2469C25.4406 17.2149 29.6587 19.9869 30.3007 24.4089C30.7507 27.5109 29.5687 29.9889 27.0007 31.7949C26.8867 31.8729 26.7667 31.9449 26.5987 32.0589C26.8567 32.1429 27.0546 32.2089 27.2586 32.2689C29.8926 33.0909 32.1427 34.5189 33.9847 36.5709C34.3447 36.9729 34.3746 37.3449 34.0806 37.6449C33.7686 37.9689 33.3427 37.9449 32.9827 37.5429C32.0947 36.5649 31.1107 35.7189 29.9827 35.0229C27.8767 33.7269 25.5846 33.0789 23.1186 33.0069C20.9346 32.9409 18.7867 33.0969 16.7647 34.0389C13.2487 35.6769 11.0226 38.3889 10.0746 42.1389C9.72064 43.5549 10.6207 44.7609 12.0607 44.7669C15.9607 44.7849 19.8547 44.7729 23.7547 44.7669C23.8147 44.7669 23.8747 44.7549 24.0007 44.7369H24.0186ZM31.6327 50.6709C32.2507 50.6709 32.8147 50.6829 33.3727 50.6709C35.3347 50.6109 37.1946 51.0189 39.0186 51.7389C39.9606 52.1109 40.9927 52.4049 41.9947 52.4469C44.9707 52.5609 47.9467 52.5369 50.9227 52.5609C51.7387 52.5609 52.2727 52.0689 52.2787 51.3369C52.2787 50.6049 51.7686 50.1129 50.9406 50.0949C50.2686 50.0829 49.6026 50.0949 48.9306 50.0889C48.3786 50.0829 48.0607 49.8249 48.0547 49.3989C48.0487 48.9669 48.3667 48.6969 48.9127 48.6909C49.5967 48.6849 50.2867 48.7029 50.9707 48.6849C51.7867 48.6609 52.2967 48.1509 52.2787 47.4129C52.2607 46.7049 51.7326 46.2249 50.9406 46.2129C50.2986 46.2069 49.6627 46.2129 49.0207 46.2129C48.3847 46.2129 48.0547 45.9789 48.0487 45.5229C48.0427 45.0549 48.3847 44.8089 49.0447 44.8089C49.7167 44.8089 50.3887 44.8209 51.0547 44.8089C51.7987 44.7909 52.3087 44.2269 52.2727 43.5009C52.2367 42.8649 51.7627 42.3849 51.0787 42.3609C50.3167 42.3369 49.5486 42.3609 48.7866 42.3429C48.4026 42.3369 48.0787 42.1329 48.0787 41.7489C48.0787 41.5029 48.2827 41.2329 48.4627 41.0289C48.5467 40.9329 48.7867 40.9569 48.9547 40.9509C49.6387 40.9449 50.3287 40.9689 51.0127 40.9389C51.8647 40.9029 52.3867 40.2729 52.2607 39.4809C52.1647 38.8629 51.6427 38.4609 50.8927 38.4609C48.6007 38.4549 46.3087 38.4609 44.0167 38.4489C43.1587 38.4489 42.4386 38.1009 42.0306 37.3509C41.7906 36.9069 41.6586 36.3549 41.6406 35.8449C41.5926 34.3029 41.6167 32.7609 41.6227 31.2129C41.6227 30.4149 41.3707 29.7429 40.7287 29.2509C40.2487 28.8789 39.8886 28.9929 39.7026 29.5629C39.6726 29.6529 39.6486 29.7429 39.6186 29.8329C38.7426 32.8329 37.8667 35.8389 36.9847 38.8389C36.4387 40.6869 35.0527 41.8689 33.1627 42.0609C32.6587 42.1149 32.1427 42.0669 31.6147 42.0669V50.6889L31.6327 50.6709ZM25.4647 40.2189C25.4467 40.3149 25.4287 40.3629 25.4287 40.4049C25.4287 44.2029 25.4287 48.0069 25.4167 51.8049C25.4167 52.1529 25.5847 52.1709 25.8487 52.1709C27.1747 52.1649 28.4947 52.1709 29.8207 52.1709C29.9407 52.1709 30.0546 52.1469 30.1686 52.1289V40.2249H25.4647V40.2189Z" fill="#20CFCA"/>
<path d="M7.58432 15.0491C7.60832 14.7371 7.58425 14.4191 7.66825 14.1191C7.83025 13.4951 7.66829 13.0091 7.18229 12.5891C6.96029 12.3971 6.7803 12.1571 6.5943 11.9231C6.0123 11.2031 6.32427 10.3031 7.23027 10.0871C7.65627 9.98511 8.08826 9.92511 8.50226 9.78711C8.72426 9.70911 8.95226 9.54111 9.09626 9.34911C9.36026 8.98911 9.55228 8.56911 9.79828 8.19111C10.2783 7.44711 11.2023 7.44111 11.6883 8.19111C11.9523 8.59311 12.1683 9.03111 12.4443 9.42711C12.5583 9.58911 12.7563 9.72711 12.9423 9.78111C13.3863 9.91311 13.8543 9.97911 14.3043 10.0991C15.1923 10.3271 15.4803 11.2031 14.9103 11.9171C14.7663 12.0971 14.6283 12.3011 14.4423 12.4391C13.7703 12.9551 13.6983 13.6271 13.8483 14.3891C13.8903 14.5991 13.9083 14.8211 13.9083 15.0371C13.9263 15.9011 13.1463 16.5131 12.4023 16.0931C11.2623 15.4511 10.2423 15.4631 9.10827 16.0931C8.37027 16.5071 7.56026 15.8771 7.59626 15.0431L7.58432 15.0491ZM10.6743 9.34311C10.2663 10.6751 9.34225 11.2931 7.96825 11.3711C9.08425 12.2291 9.38429 13.2971 8.98229 14.5871C9.65429 14.3651 10.2063 14.0471 10.7643 14.0411C11.3103 14.0411 11.8563 14.3651 12.5283 14.5871C12.0603 13.2491 12.4623 12.2231 13.5363 11.4131C12.8703 11.2091 12.2403 11.1671 11.8083 10.8491C11.3583 10.5191 11.1003 9.93111 10.6743 9.34311Z" fill="#20CFCA"/>
<path d="M32.0164 14.4677C32.3764 13.6337 31.8424 12.8237 31.0564 12.0257C30.2704 11.2277 30.5944 10.2377 31.6984 10.0817C32.8204 9.91966 33.5644 9.43366 34.0564 8.37766C34.5424 7.33966 35.6284 7.33966 36.1204 8.36566C36.6124 9.38566 37.3084 9.89566 38.4304 10.0637C39.6364 10.2437 39.9304 11.2097 39.0724 12.0857C38.3464 12.8237 37.8964 13.5797 38.2204 14.6357C38.2624 14.7677 38.2444 14.9117 38.2444 15.0557C38.2444 15.8897 37.5424 16.4057 36.7504 16.1177C36.1804 15.9077 35.6344 15.4817 35.0704 15.4817C34.5304 15.4817 33.9844 15.8957 33.4384 16.1177C32.6704 16.4297 31.7464 15.8357 32.0164 14.4617V14.4677ZM33.3724 14.6237C34.5304 13.8617 35.6404 13.8437 36.7984 14.6177C36.4324 13.2797 36.7684 12.2297 37.8544 11.3597C36.4384 11.3117 35.5744 10.6277 35.0764 9.33166C34.6324 10.6757 33.7084 11.2877 32.3224 11.3657C33.4324 12.2237 33.7324 13.2857 33.3784 14.6237H33.3724Z" fill="#20CFCA"/>
</svg>
