<svg width="48" height="46" viewBox="0 0 48 46" fill="none" xmlns="http://www.w3.org/2000/svg">
<path d="M0.0239868 19.5378C0.0779868 19.4118 0.131987 19.2858 0.173987 19.1598C0.551987 18.0978 1.28397 17.4378 2.40597 17.2878C2.77797 17.2398 2.92198 17.0838 3.01798 16.7358C3.56398 14.7078 4.40398 12.8058 5.49598 11.0118C5.80798 10.5018 6.162 10.3698 6.558 10.6278C6.936 10.8678 6.99599 11.2398 6.70199 11.7258C5.66399 13.4418 4.87798 15.2658 4.32598 17.1918C4.24798 17.4618 4.25399 17.6418 4.52999 17.8038C4.73399 17.9298 4.938 18.1158 5.058 18.3258C5.274 18.6918 5.51999 18.7038 5.90999 18.6258C8.48399 18.0978 11.082 17.8338 13.704 17.7918C14.01 17.7918 14.19 17.6958 14.376 17.4258C15.03 16.4478 15.984 16.0218 17.154 16.1778C17.49 16.2258 17.652 16.1238 17.838 15.8718C19.116 14.1498 20.562 12.5838 22.17 11.1678C22.404 10.9638 22.488 10.8018 22.386 10.4658C22.26 10.0338 22.242 9.5478 22.26 9.0918C22.272 8.8458 22.224 8.7318 22.02 8.6118C19.854 7.3638 17.568 6.3858 15.126 5.6778C14.7 6.3978 14.112 6.9258 13.284 7.1298C12.456 7.3338 11.676 7.2078 10.866 6.6798C10.254 7.3158 9.642 7.9758 9 8.6058C8.826 8.7738 8.54998 8.9538 8.33998 8.9358C8.12398 8.9178 7.82998 8.7078 7.74598 8.5098C7.66798 8.3178 7.73397 7.9578 7.87797 7.8018C8.46597 7.1418 9.10199 6.5118 9.73799 5.8998C9.92999 5.7138 9.98399 5.5758 9.89399 5.3058C9.47399 4.0338 9.90599 2.7918 10.98 2.0598C12.072 1.3158 13.374 1.3878 14.43 2.2758C14.616 2.4378 14.748 2.4438 14.958 2.3358C18.756 0.463799 22.77 -0.256201 26.976 0.0797994C29.7 0.301799 32.31 0.985799 34.782 2.1798C35.046 2.3058 35.226 2.3298 35.484 2.1318C36.45 1.3878 37.65 1.3578 38.67 2.0118C39.708 2.6778 40.212 3.8538 39.924 5.0418C39.852 5.3478 39.876 5.5458 40.134 5.7198C40.224 5.7798 40.302 5.8578 40.38 5.9358C40.914 6.5178 41.412 6.8838 42.354 6.6498C43.482 6.3678 44.412 6.9978 45.012 7.9818C45.606 8.9598 45.6 9.9738 44.982 10.9398C44.802 11.2218 44.802 11.4018 44.964 11.6778C47.418 16.0578 48.33 20.7618 47.748 25.7358C47.088 31.3818 44.604 36.1098 40.458 39.9798C40.272 40.1538 40.23 40.2918 40.308 40.5438C40.692 41.8218 40.266 43.0278 39.21 43.7538C38.148 44.4798 36.882 44.4318 35.832 43.6038C35.64 43.4478 35.502 43.4538 35.298 43.5618C31.446 45.5058 27.36 46.2558 23.07 45.9078C20.202 45.6738 17.46 44.9298 14.892 43.6158C14.586 43.4598 14.388 43.4718 14.106 43.6638C13.14 44.3298 11.922 44.2938 10.95 43.6158C9.978 42.9318 9.52799 41.7978 9.80999 40.6698C9.88199 40.3758 9.83397 40.2018 9.60597 39.9918C5.29197 35.9478 2.82599 30.9798 2.23799 25.0878C2.17199 24.4518 2.17799 23.8098 2.12999 23.1738C2.11799 23.0418 2.05798 22.8318 1.96798 22.8018C0.923981 22.4358 0.33 21.6738 0 20.6598C0 20.2878 0 19.9098 0 19.5378H0.0239868ZM15.936 21.7218C15.894 21.7518 15.876 21.7578 15.87 21.7638C13.332 26.9538 12.36 32.4378 12.864 38.1858C12.876 38.3118 13.062 38.4798 13.2 38.5158C13.806 38.6838 14.34 38.9658 14.718 39.4638C14.916 39.7278 15.078 39.7518 15.372 39.6378C18.81 38.3298 22.038 36.6378 25.038 34.5138C28.29 32.2098 31.152 29.4978 33.654 26.3958C33.804 26.2098 33.822 26.0718 33.696 25.8678C33.366 25.3338 33.246 24.7338 33.336 24.1158C33.384 23.7798 33.252 23.6598 32.982 23.5278C29.412 21.7698 25.668 20.5458 21.756 19.8378C21.012 19.7058 20.262 19.6098 19.53 19.5018C18.966 21.2778 17.694 22.0398 15.93 21.7218H15.936ZM36.354 27.3438C35.964 27.2778 35.646 27.2898 35.388 27.1698C35.022 27.0018 34.848 27.1338 34.626 27.4098C31.32 31.5018 27.408 34.8978 22.884 37.5798C20.628 38.9178 18.27 40.0398 15.816 40.9638C15.654 41.0238 15.462 41.1738 15.414 41.3238C15.324 41.6118 15.33 41.9298 15.294 42.2418C15.354 42.2778 15.402 42.3138 15.456 42.3378C21.822 45.3678 28.194 45.3738 34.566 42.3678C34.8 42.2598 34.866 42.1398 34.836 41.8698C34.668 40.3218 35.43 39.1698 36.888 38.6598C37.026 38.6118 37.188 38.3958 37.2 38.2518C37.272 37.1298 37.308 36.0138 37.35 34.8918C37.368 34.4178 37.632 34.1358 38.058 34.1358C38.478 34.1358 38.76 34.4238 38.748 34.9038C38.718 36.0558 38.7 37.2138 38.592 38.3598C38.55 38.8338 38.886 38.8278 39.102 39.0018C39.336 39.1938 39.462 39.0078 39.606 38.8758C41.628 36.9978 43.23 34.8138 44.43 32.3298C44.568 32.0418 44.544 31.8738 44.316 31.6458C42.516 29.8638 40.59 28.2378 38.508 26.7978C38.34 26.6838 38.208 26.4498 37.908 26.6538C37.602 26.8578 37.692 27.0798 37.746 27.3318C37.968 28.4118 38.208 29.4918 38.394 30.5838C38.49 31.1358 38.046 31.4958 37.542 31.3758C37.128 31.2738 37.056 30.9438 36.99 30.5958C36.786 29.5098 36.57 28.4298 36.354 27.3558V27.3438ZM10.638 39.0858C11.442 38.8878 11.49 38.4078 11.43 37.7838C11.178 34.9398 11.346 32.1198 11.88 29.3118C12.408 26.5398 13.278 23.8878 14.496 21.3498C14.568 21.1998 14.64 20.9778 14.58 20.8458C14.334 20.2998 14.046 19.7778 13.74 19.1958C13.776 19.1958 13.716 19.1838 13.656 19.1958C11.1 19.4778 8.54999 19.7658 5.99399 20.0478C5.70599 20.0778 5.66398 20.2458 5.64598 20.4858C5.56798 21.3498 5.12997 22.0098 4.39797 22.4598C4.13997 22.6218 3.85199 22.7358 3.50999 22.9038C3.86999 29.2098 6.14999 34.6458 10.644 39.0858H10.638ZM39.036 6.5958C37.398 7.6398 36.042 7.4118 34.794 5.9418C34.722 5.8578 34.494 5.8278 34.368 5.8638C32.166 6.5238 30.084 7.4538 28.086 8.5938C27.834 8.7378 27.822 8.8998 27.822 9.1578C27.828 9.5898 27.822 10.0338 27.702 10.4418C27.6 10.7898 27.672 10.9638 27.924 11.1858C30.966 13.8858 33.402 17.0538 35.232 20.6838C35.526 21.2658 35.766 21.7518 36.558 21.6498C36.804 21.6198 36.96 21.6498 37.11 21.3978C38.802 18.5118 40.146 15.4758 41.13 12.2778C41.208 12.0318 41.184 11.8998 40.956 11.7378C40.356 11.3178 40.002 10.7298 39.846 10.0158C39.666 9.2118 39.858 8.4798 40.278 7.7658C39.852 7.3698 39.45 6.9858 39.024 6.5958H39.036ZM45.222 30.3918C45.198 30.4278 45.228 30.3918 45.246 30.3558C45.3 30.2118 45.354 30.0678 45.408 29.9178C45.99 28.1958 46.344 26.4318 46.464 24.6198C46.758 20.3118 45.906 16.2558 43.806 12.4758C43.728 12.3378 43.494 12.1458 43.434 12.1758C43.122 12.3318 42.636 12.0558 42.48 12.6318C42.24 13.5018 41.928 14.3478 41.616 15.1938C40.734 17.5758 39.636 19.8618 38.352 22.0578C38.274 22.1958 38.202 22.4538 38.274 22.5378C38.946 23.3658 39.096 24.2958 38.898 25.1778C41.046 26.9418 43.134 28.6638 45.222 30.3858V30.3918ZM18.786 16.9458C19.032 17.3418 19.182 17.8338 19.512 18.0378C19.866 18.2538 20.382 18.1938 20.832 18.2658C25.338 18.9618 29.646 20.3058 33.732 22.3278C33.876 22.3998 34.116 22.3818 34.248 22.3038C34.32 22.2618 34.308 21.9678 34.248 21.8358C32.442 18.1218 29.994 14.8878 26.91 12.1398C26.712 11.9658 26.574 11.9478 26.34 12.0678C25.662 12.4278 24.9 12.5778 24.228 12.2358C23.508 11.8698 23.094 12.1278 22.656 12.6198C22.542 12.7458 22.404 12.8538 22.284 12.9738C21.006 14.2038 19.824 15.5298 18.792 16.9518L18.786 16.9458ZM27.096 7.5558C29.172 6.3318 31.332 5.3538 33.612 4.6218C34.104 4.4658 34.376 4.1158 34.428 3.5718C34.218 3.4698 33.996 3.3558 33.768 3.2598C31.356 2.1738 28.824 1.5798 26.184 1.4478C22.5 1.2618 18.996 1.9458 15.678 3.5658C15.54 3.6318 15.384 3.8538 15.396 3.9918C15.408 4.1298 15.588 4.3098 15.732 4.3818C15.978 4.5078 16.26 4.5618 16.53 4.6458C18.792 5.3718 20.934 6.3558 22.974 7.5498C24.42 6.3258 25.962 6.5598 27.096 7.5558ZM4.25999 20.0958C4.26599 19.2678 3.64798 18.6318 2.83198 18.6318C2.08798 18.6318 1.44 19.2738 1.422 20.0358C1.404 20.8278 2.01598 21.4938 2.78998 21.5118C3.62398 21.5298 4.24798 20.9298 4.25398 20.0958H4.25999ZM16.746 20.3958C17.55 20.3958 18.156 19.7838 18.168 18.9738C18.174 18.1998 17.526 17.5458 16.746 17.5398C15.966 17.5398 15.306 18.1758 15.3 18.9498C15.294 19.7718 15.924 20.4018 16.746 20.3958ZM37.56 24.4638C37.566 23.6298 36.954 22.9998 36.132 23.0058C35.376 23.0058 34.746 23.6418 34.728 24.4038C34.71 25.2138 35.358 25.8978 36.144 25.8918C36.948 25.8918 37.554 25.2738 37.566 24.4638H37.56ZM11.148 4.4118C11.148 5.1918 11.796 5.8458 12.57 5.8458C13.344 5.8458 13.998 5.1918 13.992 4.4118C13.992 3.5958 13.398 2.9838 12.594 2.9718C11.766 2.9598 11.148 3.5778 11.148 4.4118ZM25.014 8.1138C24.24 8.1198 23.598 8.7858 23.61 9.5658C23.622 10.3458 24.288 11.0058 25.05 10.9938C25.848 10.9758 26.466 10.3578 26.466 9.5598C26.466 8.7378 25.836 8.1138 25.014 8.1198V8.1138ZM39.054 41.4138C39.048 40.5978 38.448 39.9978 37.638 39.9978C36.81 39.9978 36.204 40.6098 36.21 41.4498C36.216 42.2358 36.852 42.8598 37.65 42.8538C38.436 42.8478 39.06 42.2058 39.054 41.4138ZM37.2 2.9658C36.414 2.9658 35.766 3.5958 35.766 4.3758C35.766 5.2038 36.384 5.8338 37.2 5.8278C38.004 5.8218 38.604 5.2158 38.616 4.3998C38.622 3.6198 37.986 2.9718 37.2 2.9658ZM12.564 39.8538C11.796 39.8538 11.154 40.5138 11.148 41.2938C11.148 42.0978 11.808 42.7578 12.6 42.7398C13.374 42.7278 14.004 42.0678 13.998 41.2818C13.986 40.5078 13.326 39.8478 12.564 39.8478V39.8538ZM41.19 9.4398C41.19 10.2678 41.814 10.8858 42.642 10.8738C43.398 10.8618 44.022 10.2318 44.028 9.4638C44.04 8.6658 43.422 8.0238 42.642 8.0118C41.808 7.9998 41.19 8.6118 41.19 9.4398Z" fill="#20CFCA"/>
</svg>
