<svg width="45" height="45" viewBox="0 0 45 45" fill="none" xmlns="http://www.w3.org/2000/svg">
<path d="M28.9492 11.9651C28.3552 12.4271 27.7612 12.9011 27.1312 13.3931C27.2512 13.4831 27.3532 13.5671 27.4672 13.6511C32.1712 17.1191 34.3912 21.7811 33.9292 27.6071C33.3772 34.6031 27.6892 40.4051 20.6872 41.2031C19.5772 41.3291 18.4492 41.2871 17.3272 41.2631C17.0812 41.2631 16.7452 41.0651 16.6252 40.8551C16.3612 40.4111 16.7452 39.9491 17.3092 39.9611C18.0412 39.9791 18.7732 40.0211 19.5052 39.9971C25.8112 39.7811 31.4152 34.8611 32.4652 28.6331C32.7712 26.8151 32.7592 25.0091 32.3572 23.1311C31.1992 23.7851 30.0592 24.3911 29.3092 25.4951C28.7152 26.3771 28.8592 27.3731 28.9432 28.3511C29.0092 29.1551 29.2372 30.0011 29.0692 30.7511C28.5472 33.0251 27.0712 34.5611 24.8692 35.3051C23.5492 35.7491 22.4512 35.1491 22.0672 33.7991C21.8512 33.0311 21.7552 32.2091 21.7192 31.4051C21.6412 29.8151 21.6772 28.2251 21.6052 26.6351C21.5452 25.2911 21.3952 25.2191 20.0632 25.3871C19.0132 25.5191 17.9512 25.6991 16.9072 25.6631C14.5312 25.5791 12.9172 23.5211 13.2352 21.1511C13.4272 19.7291 14.1892 18.6431 15.2212 17.7071C15.3232 17.6111 15.4313 17.5211 15.5393 17.4311C15.5513 17.4251 15.5512 17.4071 15.5872 17.3291C13.5952 17.1011 11.8012 16.3871 10.1512 15.2651C8.36319 16.6991 7.01925 18.4451 6.08925 20.5151C6.04725 20.6111 6.04725 20.7671 6.08925 20.8511C6.64125 21.8291 7.2232 22.7891 7.7572 23.7671C8.0692 24.3371 8.48922 24.7031 9.13122 24.8531C9.53922 24.9491 9.9352 25.1111 10.3072 25.2971C11.2492 25.7591 11.6452 26.5811 11.3332 27.5831C11.0932 28.3511 10.7392 29.0831 10.4272 29.8331C10.3252 30.0791 10.2172 30.3191 10.0852 30.5471C9.5932 31.4171 9.51519 32.2091 10.0732 33.1511C10.7632 34.3211 10.9432 35.6771 10.7752 37.0451C10.7392 37.3271 10.7872 37.5131 11.0512 37.6571C11.8492 38.0771 12.6352 38.5271 13.4332 38.9411C13.9132 39.1931 14.0812 39.4931 13.8952 39.8951C13.7212 40.2731 13.3852 40.3691 12.8992 40.1531C7.67324 37.7711 4.49323 33.7751 3.74323 28.0691C3.04723 22.7651 4.84125 18.2891 8.78925 14.6831C8.85525 14.6231 8.92725 14.5571 9.01125 14.4731C8.94525 14.3951 8.89722 14.3171 8.83122 14.2631C6.34122 12.1331 4.48723 9.51709 2.98723 6.61909C2.79523 6.25309 2.83124 5.92309 3.14924 5.65309C6.26324 3.00109 9.67122 0.901086 13.7812 0.181086C17.5252 -0.478914 20.7232 0.703086 23.5492 3.10909C23.8792 3.39109 23.8972 3.75709 23.6272 4.05709C23.3692 4.35109 23.0332 4.37509 22.6732 4.08109C21.5812 3.18709 20.4172 2.41309 19.0852 1.91509C18.1072 1.54909 17.0992 1.31509 15.9772 1.32709C16.0792 1.48909 16.1452 1.60309 16.2232 1.71109C17.9452 4.06309 19.6672 6.41509 21.3952 8.76109C21.4912 8.89309 21.6172 9.06109 21.7552 9.08509C23.6752 9.47509 25.6012 9.84709 27.5212 10.2251L27.6112 10.1291C26.8973 9.09709 26.1832 8.06509 25.4632 7.03309C25.4092 6.95509 25.3493 6.88909 25.2893 6.81109C24.9593 6.37909 24.9652 6.01309 25.3072 5.75509C25.6372 5.50309 25.9852 5.57509 26.3032 5.98309C26.6392 6.40909 26.9932 6.83509 27.2872 7.29109C27.9292 8.29909 28.4272 9.43309 29.2012 10.3331C29.9692 11.2331 30.9952 11.9051 31.9072 12.6851C32.1772 12.9191 32.4293 13.1711 32.7113 13.4351C32.6453 12.9431 32.5732 12.4631 32.5192 11.9831C32.1832 8.95909 33.1732 6.46309 35.5192 4.51909C37.3612 2.98909 39.4973 2.04109 41.7893 1.40509C42.2213 1.28509 42.5152 1.41709 42.7252 1.80109C43.9012 3.95509 44.7292 6.22909 44.8792 8.70109C45.0472 11.5331 44.0032 13.8431 41.8252 15.6491C40.2652 16.9451 38.4832 17.8091 36.5812 18.4571C36.4192 18.5111 36.2572 18.5651 36.0532 18.6371C36.1132 18.8051 36.1672 18.9611 36.2272 19.1111C40.5952 29.8091 34.1032 42.0731 22.7992 44.4791C12.7132 46.6271 2.93922 40.4651 0.503216 30.4151C-0.0727836 28.0391 -0.15081 25.6331 0.25119 23.2211C0.33519 22.7051 0.581213 22.4951 1.02521 22.5671C1.44521 22.6331 1.62521 22.9391 1.54721 23.4431C0.293211 31.9331 5.0872 39.8591 13.1632 42.6611C23.0932 46.1051 34.0672 39.7751 35.9212 29.4431C37.1752 22.4351 34.8592 16.6931 29.3572 12.2051C29.2612 12.1271 29.1592 12.0551 29.0512 11.9891C29.0272 11.9711 28.9912 11.9651 28.9492 11.9531V11.9651ZM31.9792 21.7931C31.9612 21.7331 31.9492 21.6791 31.9252 21.6191C30.8632 18.5831 28.9612 16.2071 26.2852 14.4371C25.9972 14.2451 25.7872 14.2511 25.4932 14.4371C23.2372 15.8411 20.8432 16.8911 18.1852 17.2571C18.0832 17.2691 17.9752 17.3171 17.8912 17.3771C17.4952 17.6471 17.0932 17.9231 16.7092 18.2111C15.7972 18.8891 15.0052 19.6751 14.6512 20.7971C14.0572 22.6991 15.2992 24.4091 17.2792 24.3971C17.6692 24.3971 18.0592 24.3611 18.4432 24.3131C19.2472 24.2111 20.0452 24.0671 20.8492 23.9831C21.6532 23.8991 22.2232 24.2171 22.5232 24.9671C22.7212 25.4471 22.8712 25.9811 22.9012 26.4971C22.9792 28.0511 22.9552 29.6111 23.0212 31.1711C23.0512 31.9151 23.1412 32.6651 23.3032 33.3851C23.4472 34.0391 23.8612 34.2311 24.5032 34.0751C26.4412 33.6131 28.0612 31.2311 27.7552 29.2811C27.7072 28.9871 27.6652 28.6931 27.6232 28.4051C27.2512 26.1071 28.0072 24.3011 29.9932 23.0411C30.6472 22.6271 31.3072 22.2191 31.9852 21.7991L31.9792 21.7931ZM14.1592 15.6791C14.9392 16.0571 16.7692 16.0931 17.7232 15.9851C19.9612 15.7271 22.0132 14.9291 23.9452 13.8131C25.0972 13.1471 26.1952 12.3851 27.4252 11.5991C27.1672 11.5211 27.0712 11.4791 26.9692 11.4551C25.2112 11.1131 23.4532 10.7591 21.6952 10.4411C21.4972 10.4051 21.2332 10.4891 21.0652 10.6091C18.8572 12.2111 16.6612 13.8251 14.4592 15.4391C14.3632 15.5111 14.2732 15.5891 14.1652 15.6731L14.1592 15.6791ZM5.45922 22.3091C3.92322 27.3851 5.80124 33.3371 9.45524 36.3371C9.56924 35.4971 9.25122 34.2371 8.60322 33.1631C8.23722 32.5571 8.15923 31.9331 8.39323 31.2851C8.65723 30.5711 8.98121 29.8811 9.27521 29.1791C9.52121 28.5911 9.7972 28.0151 10.0132 27.4151C10.2232 26.8391 10.1152 26.6471 9.54518 26.4011C9.28718 26.2931 9.02322 26.1851 8.75322 26.1251C7.73922 25.8911 7.04922 25.2851 6.58122 24.3671C6.23922 23.6891 5.85522 23.0351 5.45322 22.3031L5.45922 22.3091ZM9.05322 12.7031C10.0432 13.6331 11.0812 14.3891 12.2332 14.9951C12.5092 15.1391 12.6952 15.1091 12.9412 14.9231C14.6032 13.6871 16.2772 12.4691 17.9452 11.2451C18.4672 10.8611 18.9952 10.4771 19.5352 10.0811C19.4512 10.0331 19.4152 9.99709 19.3732 9.98509C17.7112 9.66109 16.0492 9.33109 14.3812 9.01909C14.2492 8.99509 14.0632 9.03709 13.9552 9.12109C12.3292 10.2971 10.7152 11.4851 9.05922 12.7031H9.05322ZM19.5893 8.68309C19.6013 8.61109 19.6132 8.59309 19.6072 8.58109C17.9092 6.25909 16.2112 3.93109 14.5012 1.61509C14.4352 1.52509 14.2672 1.43509 14.1652 1.44709C12.9832 1.62109 11.8372 1.93309 10.7512 2.42509C10.7692 2.49109 10.7692 2.52709 10.7812 2.55109C11.9932 4.20709 13.2052 5.86909 14.4292 7.51909C14.5252 7.65109 14.7292 7.73509 14.8972 7.77109C15.6712 7.93909 16.4512 8.08309 17.2312 8.23309C18.0172 8.38309 18.8033 8.53309 19.5893 8.67709V8.68309ZM43.4992 10.2911C41.8312 10.9751 40.2352 11.6291 38.6452 12.3011C38.5012 12.3611 38.3872 12.5591 38.3212 12.7151C37.7572 14.0291 37.2112 15.3551 36.6592 16.6751C36.6112 16.7831 36.5813 16.8971 36.5393 17.0291C38.8073 16.3631 41.4652 14.6711 42.5932 12.8411C43.0672 12.0731 43.3732 11.2571 43.4992 10.2851V10.2911ZM35.2312 16.5791C35.2612 16.5431 35.3032 16.5131 35.3212 16.4711C35.9032 15.0791 36.4853 13.6931 37.0613 12.2951C37.1033 12.1931 37.1092 12.0491 37.0672 11.9471C36.4012 10.3091 35.7232 8.67709 35.0452 7.02709C33.1252 9.13309 33.5632 13.3151 35.2312 16.5731V16.5791ZM12.3832 8.62909C9.79725 8.12509 7.33121 7.64509 4.76921 7.14109C5.73521 8.85709 6.82725 10.3691 8.11125 11.7551C9.52725 10.7171 10.8952 9.71509 12.3832 8.62309V8.62909ZM40.9312 3.05509C39.1072 3.70909 37.5172 4.51309 36.1552 5.73109C36.0892 5.79109 36.0412 5.95909 36.0712 6.04309C36.6472 7.46509 37.2352 8.87509 37.8592 10.3931C38.8912 7.92709 39.8872 5.55109 40.9312 3.05509ZM5.02123 5.69509C5.04523 5.74909 5.06924 5.80909 5.09924 5.86309C7.58324 6.34909 10.0612 6.82909 12.6472 7.33309C11.5552 5.83909 10.5112 4.42309 9.40119 2.90509C7.91919 3.84709 6.47323 4.77109 5.02123 5.69509ZM39.1852 10.6451C40.5472 10.0871 41.7712 9.55309 43.0252 9.07909C43.4752 8.91109 43.6432 8.69509 43.5172 8.22709C43.4512 7.97509 43.4512 7.69909 43.4032 7.44109C43.1632 6.12109 42.7552 4.85509 42.1372 3.58309C41.1472 5.94109 40.1932 8.23909 39.1852 10.6451Z" fill="#20CFCA"/>
</svg>
